<?xml version="1.0" encoding="UTF-8" standalone="no"?>
<!-- Created with Inkscape (http://www.inkscape.org/) -->

<svg
   width="63.999996"
   height="63.999996"
   viewBox="0 0 16.933332 16.933332"
   version="1.1"
   id="svg1"
   xml:space="preserve"
   inkscape:version="1.4 (e7c3feb100, 2024-10-09)"
   sodipodi:docname="rpn-calc.svg"
   xmlns:inkscape="http://www.inkscape.org/namespaces/inkscape"
   xmlns:sodipodi="http://sodipodi.sourceforge.net/DTD/sodipodi-0.dtd"
   xmlns="http://www.w3.org/2000/svg"
   xmlns:svg="http://www.w3.org/2000/svg"><sodipodi:namedview
     id="namedview1"
     pagecolor="#ffffff"
     bordercolor="#666666"
     borderopacity="1.0"
     inkscape:showpageshadow="2"
     inkscape:pageopacity="0.0"
     inkscape:pagecheckerboard="false"
     inkscape:deskcolor="#d1d1d1"
     inkscape:document-units="mm"
     inkscape:window-width="3840"
     inkscape:window-height="2065"
     inkscape:window-x="0"
     inkscape:window-y="0"
     inkscape:window-maximized="1"
     inkscape:current-layer="g2" /><defs
     id="defs1" /><g
     inkscape:label="Layer 1"
     inkscape:groupmode="layer"
     id="layer1"
     transform="translate(-44.244204,-127.10471)"><circle
       style="fill:#433c38;fill-opacity:1;fill-rule:evenodd;stroke-width:0.0868773"
       id="path2"
       cx="52.710873"
       cy="135.57138"
       r="8.4666662" /><rect
       style="font-variation-settings:normal;fill:#171717;fill-opacity:1;fill-rule:evenodd;stroke:#000000;stroke-width:0.613856;stroke-linecap:butt;stroke-linejoin:miter;stroke-miterlimit:4;stroke-dasharray:none;stroke-dashoffset:0;stroke-opacity:1;stop-color:#000000"
       id="rect1"
       width="12.538229"
       height="6.8597093"
       x="46.441757"
       y="133.5296"
       ry="1.2408738"
       rx="1.0347317" /><rect
       style="font-variation-settings:normal;fill:#111111;fill-opacity:1;fill-rule:evenodd;stroke:#000000;stroke-width:0.2682;stroke-linecap:butt;stroke-linejoin:miter;stroke-miterlimit:4;stroke-dasharray:none;stroke-dashoffset:0;stroke-opacity:1;stop-color:#000000"
       id="rect1-1"
       width="11.1318"
       height="5.4450493"
       x="47.152401"
       y="134.23692"
       ry="1.7413"
       rx="1.5452471" /><path
       style="font-size:4.02597px;line-height:1.25;font-family:'Quicksand Medium';-inkscape-font-specification:'Quicksand Medium, Normal';font-variant-ligatures:none;letter-spacing:0px;word-spacing:0px;fill:#ffffff;stroke:#ffffff;stroke-width:0.0819221"
       d="m 51.275373,137.69755 q 0.04026,0.0282 0.06442,0.0725 0.02416,0.0403 0.02416,0.0845 0,0.0845 -0.05636,0.1248 -0.05234,0.0403 -0.128831,0.0403 -0.07649,0 -0.128831,-0.0322 -0.120779,-0.0684 -0.197273,-0.22143 -0.07649,-0.15299 -0.07649,-0.45091 0,-0.2013 -0.120779,-0.29792 -0.120779,-0.0966 -0.314026,-0.0966 h -0.813246 v 0.90585 q 0,0.0845 -0.04831,0.14091 -0.04831,0.0523 -0.124805,0.0523 -0.0926,0 -0.161039,-0.0564 -0.06442,-0.0564 -0.06442,-0.13688 v -2.43169 q 0,-0.0805 0.05636,-0.13688 0.05636,-0.0564 0.136883,-0.0564 h 1.131297 q 0.217403,0 0.398571,0.10871 0.181169,0.10467 0.28987,0.29389 0.108702,0.1852 0.108702,0.4187 0,0.22546 -0.12078,0.42273 -0.120779,0.19325 -0.309999,0.28987 0.148961,0.0765 0.233506,0.21337 0.08857,0.13689 0.09662,0.31806 0.0161,0.22948 0.03623,0.31402 0.02013,0.0805 0.08857,0.11676 z m -0.829349,-1.11117 q 0.100649,-0.008 0.18922,-0.0805 0.0926,-0.0725 0.148961,-0.19325 0.05636,-0.1248 0.05636,-0.27779 0,-0.19325 -0.12078,-0.3261 -0.116753,-0.13689 -0.285843,-0.13689 h -0.905844 v 1.01455 z m 2.54844,-1.38494 q 0.213376,0 0.394545,0.11676 0.181169,0.11272 0.285844,0.31 0.108701,0.19727 0.108701,0.4348 0,0.23753 -0.108701,0.43883 -0.104675,0.2013 -0.285844,0.31805 -0.181169,0.11676 -0.394545,0.11676 h -0.756883 v 0.88974 q 0,0.0805 -0.05234,0.13688 -0.05234,0.0564 -0.132857,0.0564 -0.08455,0 -0.136883,-0.0523 -0.04831,-0.0564 -0.04831,-0.14091 v -2.43169 q 0,-0.0805 0.05636,-0.13688 0.05636,-0.0564 0.136883,-0.0564 z m 0,1.36883 q 0.108701,0 0.201298,-0.0684 0.0926,-0.0725 0.144935,-0.18922 0.05636,-0.11675 0.05636,-0.24961 0,-0.20532 -0.120779,-0.34623 -0.116753,-0.14494 -0.281818,-0.14494 h -0.756883 v 0.99844 z m 3.393894,-1.36883 q 0.07649,0 0.124805,0.0523 0.04831,0.0483 0.04831,0.12481 v 2.44376 q 0,0.0846 -0.05636,0.14091 -0.05234,0.0564 -0.136883,0.0564 -0.04429,0 -0.08857,-0.0121 -0.04026,-0.0161 -0.06442,-0.0443 l -1.582206,-2.0613 v 1.94052 q 0,0.0765 -0.05234,0.12883 -0.04831,0.0483 -0.124805,0.0483 -0.07649,0 -0.124806,-0.0483 -0.04831,-0.0523 -0.04831,-0.12883 v -2.44779 q 0,-0.0845 0.05234,-0.13688 0.05636,-0.0564 0.136883,-0.0564 0.04831,0 0.0926,0.0201 0.04429,0.0161 0.06844,0.0483 l 1.57818,2.06532 v -1.95662 q 0,-0.0765 0.04831,-0.12481 0.05234,-0.0523 0.128831,-0.0523 z"
       id="text2"
       transform="scale(0.99745231,1.0025542)"
       aria-label="RPN" /><g
       id="g2"
       transform="translate(0.38070107)"><rect
         style="font-variation-settings:normal;vector-effect:none;fill:#262927;fill-opacity:1;fill-rule:evenodd;stroke-width:0.208327;stroke-linecap:butt;stroke-linejoin:miter;stroke-miterlimit:4;stroke-dasharray:none;stroke-dashoffset:0;stroke-opacity:1;-inkscape-stroke:none;stop-color:#000000"
         id="rect2"
         width="10.01405"
         height="2.7"
         x="47.323147"
         y="129.7621"
         ry="0"
         rx="0" /><text
         xml:space="preserve"
         style="font-size:3.12px;line-height:1.25;font-family:'Capture it 2';-inkscape-font-specification:'Capture it 2, Normal';font-variant-ligatures:none;letter-spacing:0px;word-spacing:0px;fill:#d4844e;fill-opacity:1;stroke:#d4844e;stroke-width:0.063487;stroke-opacity:1"
         x="46.878555"
         y="136.3304"
         id="text2-4"
         transform="scale(1.0315072,0.96945519)"><tspan
           sodipodi:role="line"
           id="tspan2-2"
           style="font-style:normal;font-variant:normal;font-weight:normal;font-stretch:normal;font-size:3.12px;font-family:'Quicksand Medium';-inkscape-font-specification:'Quicksand Medium, Normal';font-variant-ligatures:none;font-variant-caps:normal;font-variant-numeric:normal;font-variant-east-asian:normal;fill:#d4844e;fill-opacity:1;stroke:#d4844e;stroke-width:0.063487;stroke-opacity:1"
           x="46.878555"
           y="136.3304">CALC</tspan></text></g></g></svg>
